<?xml version="1.0" standalone="no"?>
<!DOCTYPE svg PUBLIC "-//W3C//DTD SVG 20010904//EN"
 "http://www.w3.org/TR/2001/REC-SVG-20010904/DTD/svg10.dtd">
<svg version="1.0" xmlns="http://www.w3.org/2000/svg"
 width="639.000000pt" height="639.000000pt" viewBox="0 0 639.000000 639.000000"
 preserveAspectRatio="xMidYMid meet">
<metadata>
Created by potrace 1.11, written by Peter Selinger 2001-2013
</metadata>
<g transform="translate(0.000000,639.000000) scale(0.100000,-0.100000)"
fill="#000000" stroke="none">
<path d="M3210 6378 c0 -4 -9 -5 -20 -3 -11 2 -20 -1 -20 -7 0 -6 -3 -9 -6 -5
-4 3 -22 0 -41 -8 -19 -8 -40 -12 -46 -8 -6 3 -7 1 -3 -5 6 -11 -6 -16 -26
-13 -5 0 -8 -3 -8 -8 0 -5 -13 -14 -30 -20 -16 -5 -30 -15 -30 -21 0 -6 -5 -8
-10 -5 -6 3 -13 -1 -16 -9 -3 -9 -11 -16 -18 -16 -6 0 -30 -20 -54 -45 -24
-25 -40 -45 -37 -45 3 0 1 -6 -5 -12 -46 -56 -60 -75 -60 -85 0 -7 -5 -13 -11
-13 -5 0 -8 -4 -4 -9 3 -5 -5 -18 -17 -28 -24 -19 -34 -43 -19 -43 5 0 7 -9 4
-20 -3 -11 -10 -17 -17 -13 -6 4 -5 -1 3 -10 11 -14 11 -17 0 -17 -12 0 -12
-2 0 -9 9 -6 10 -10 2 -12 -7 -3 -13 -34 -15 -81 -2 -42 -7 -82 -11 -89 -5 -8
-4 -10 3 -5 8 4 10 -4 7 -26 -2 -18 2 -45 10 -61 7 -15 10 -25 5 -22 -5 3 -8
-3 -7 -14 0 -11 5 -17 11 -14 5 4 7 -3 4 -15 -4 -12 -2 -22 4 -22 5 0 8 -6 5
-12 -2 -7 5 -26 16 -42 12 -16 16 -26 9 -22 -17 10 -15 0 4 -18 9 -9 11 -16 4
-16 -6 0 -8 -4 -5 -10 3 -5 1 -10 -4 -10 -6 0 -11 5 -11 11 0 8 -4 8 -13 0
-10 -8 -17 -7 -25 1 -9 9 -12 9 -12 -2 0 -13 -2 -13 -10 0 -6 9 -10 10 -10 3
0 -6 -8 -12 -17 -12 -10 0 -30 -2 -45 -4 -16 -2 -28 0 -28 6 0 7 -4 7 -12 -1
-7 -7 -26 -12 -43 -12 -17 0 -37 -6 -44 -12 -11 -10 -14 -10 -18 -1 -3 10 -8
9 -20 -2 -8 -8 -19 -13 -24 -10 -5 4 -15 3 -21 -2 -7 -4 -24 -9 -37 -11 -13
-2 -30 -10 -38 -18 -8 -8 -19 -12 -24 -8 -5 3 -22 -4 -38 -15 -16 -12 -36 -21
-45 -21 -9 0 -16 -4 -16 -10 0 -5 -7 -10 -16 -10 -9 0 -29 -9 -45 -21 -16 -11
-29 -17 -29 -12 0 4 -4 4 -8 -2 -4 -5 -22 -21 -40 -33 -32 -23 -34 -23 -47 -5
-8 10 -12 24 -10 31 2 6 -1 12 -8 12 -8 0 -6 4 3 10 14 9 7 15 -14 11 -5 -1
-4 5 4 13 11 15 7 20 -12 17 -4 0 -5 6 -2 14 4 8 1 15 -5 15 -6 0 -8 6 -5 14
3 7 -2 21 -11 30 -9 9 -14 23 -11 31 3 8 0 15 -6 15 -6 0 -9 3 -5 6 3 3 -3 15
-14 27 -10 11 -19 27 -19 34 0 7 -5 13 -11 13 -5 0 -7 5 -4 10 3 6 -1 10 -9
10 -9 0 -16 6 -16 14 0 17 -125 147 -134 139 -3 -4 -6 -2 -6 4 0 6 -14 16 -31
23 -17 7 -36 18 -43 24 -26 24 -56 37 -56 24 0 -6 -6 -4 -13 7 -8 10 -19 15
-25 11 -7 -4 -12 -2 -12 4 0 7 -6 10 -14 7 -8 -3 -20 0 -26 8 -8 9 -19 11 -40
5 -17 -5 -32 -4 -39 3 -15 15 -41 18 -41 4 0 -7 -5 -5 -10 3 -6 10 -10 11 -10
3 0 -9 -7 -10 -24 -3 -13 5 -26 7 -28 5 -2 -2 -21 -5 -43 -8 -22 -2 -48 -8
-57 -12 -9 -4 -22 -4 -28 0 -5 3 -10 1 -10 -4 0 -6 -7 -11 -15 -11 -28 0 -95
-32 -88 -43 3 -6 1 -7 -6 -3 -6 4 -18 0 -27 -8 -8 -9 -22 -16 -30 -16 -8 0
-12 -4 -9 -10 6 -9 -8 -14 -27 -11 -5 0 -9 -3 -9 -9 -1 -5 -2 -16 -3 -22 -1
-7 -9 -12 -19 -10 -9 2 -17 -2 -17 -8 0 -6 -9 -20 -20 -32 -11 -12 -20 -30
-20 -39 0 -10 -8 -22 -18 -28 -9 -5 -16 -12 -15 -15 4 -11 -19 -66 -28 -66 -6
0 -5 -9 2 -21 6 -12 7 -19 1 -15 -14 8 -15 -139 -1 -165 7 -15 8 -19 0 -15 -7
5 -9 1 -5 -8 3 -9 10 -16 15 -16 5 0 8 -3 8 -7 -1 -5 -1 -21 0 -38 1 -23 3
-27 11 -15 8 12 10 11 10 -7 0 -13 3 -23 8 -23 4 0 13 -14 20 -30 8 -17 18
-28 23 -24 5 3 9 0 9 -6 0 -16 22 -36 48 -44 12 -4 22 -13 22 -19 0 -7 4 -6
10 3 8 12 10 12 16 -4 5 -14 9 -15 15 -4 6 10 9 8 9 -7 0 -17 2 -17 10 -5 7
11 10 12 10 2 0 -8 6 -12 13 -9 6 2 24 0 40 -4 16 -4 27 -4 27 2 0 5 10 8 23
5 51 -9 186 85 173 120 -3 8 -2 12 3 9 5 -3 12 -1 16 5 3 5 1 10 -6 10 -10 0
-10 3 -1 12 15 15 15 61 0 76 -9 9 -9 12 0 12 8 0 5 9 -7 22 -11 11 -18 24
-16 28 3 5 -7 11 -20 14 -14 4 -24 10 -21 14 2 4 -10 6 -27 5 -18 -1 -43 -2
-56 -2 -13 -1 -21 -4 -18 -8 4 -3 -1 -11 -9 -18 -11 -8 -14 -19 -9 -33 l6 -22
20 22 c12 13 17 16 13 8 -6 -11 -3 -11 12 2 19 16 22 16 59 -7 22 -13 33 -25
25 -25 -12 -1 -11 -3 3 -14 12 -10 15 -16 7 -21 -8 -5 -8 -10 0 -20 8 -9 8
-15 0 -20 -6 -3 -8 -11 -5 -16 4 -5 -1 -9 -9 -9 -10 0 -16 -9 -16 -21 0 -26
-20 -46 -53 -54 -14 -4 -28 -13 -31 -22 -3 -8 -11 -11 -18 -7 -7 4 -33 6 -59
5 -26 -1 -50 2 -54 8 -3 6 -15 11 -26 11 -10 0 -28 9 -40 21 -11 11 -29 21
-39 22 -10 1 -18 4 -17 7 3 8 -29 50 -34 45 -3 -2 -5 5 -6 16 -1 10 -9 26 -17
35 -18 17 -21 28 -6 19 6 -3 10 -1 10 4 0 6 -5 11 -11 11 -6 0 -9 7 -5 15 3 8
1 15 -4 15 -12 0 -14 137 -2 144 4 2 7 22 7 44 0 22 3 38 7 36 7 -5 12 10 9
29 0 4 3 7 9 7 5 0 10 7 10 16 0 8 4 12 10 9 6 -3 7 1 4 9 -4 9 1 18 10 22 9
3 16 12 16 19 0 8 5 17 12 21 7 5 8 3 3 -7 -5 -8 5 0 21 16 16 17 28 33 26 38
-3 6 13 11 30 8 5 0 8 3 8 8 0 5 18 16 40 25 22 9 40 20 40 26 0 5 6 7 14 4 8
-3 17 0 21 5 3 6 11 9 16 6 5 -4 9 -2 9 4 0 6 7 8 15 5 8 -4 15 -1 15 6 0 10
3 10 14 1 9 -8 16 -8 20 -2 4 6 14 7 23 4 11 -4 14 -3 9 5 -4 7 -2 12 3 12 6
0 11 -5 11 -12 0 -8 3 -9 11 -1 6 6 25 7 48 3 21 -4 45 -6 54 -4 9 1 17 -2 17
-8 0 -6 6 -5 15 2 10 9 15 9 15 1 0 -6 14 -11 30 -11 17 0 30 -4 30 -10 0 -5
9 -10 19 -10 11 0 23 -5 26 -10 4 -6 11 -8 16 -4 6 3 19 -2 30 -12 10 -9 19
-14 19 -9 0 4 9 -3 21 -16 11 -13 18 -18 14 -11 -3 6 -1 12 4 12 6 0 11 -6 11
-14 0 -7 9 -16 20 -19 11 -3 20 -12 20 -21 0 -9 5 -16 11 -16 5 0 7 6 3 13 -4
6 5 1 18 -13 14 -14 23 -28 21 -32 -2 -5 3 -8 11 -8 9 0 16 -9 16 -20 0 -11 6
-20 13 -20 12 0 60 -72 54 -81 -1 -2 0 -3 2 -2 8 5 30 -32 31 -49 0 -10 5 -18
11 -18 7 0 9 -9 6 -21 -3 -11 0 -22 7 -25 6 -2 13 -16 14 -31 1 -15 5 -29 10
-32 9 -8 14 -29 14 -68 0 -21 4 -30 11 -26 6 4 7 1 2 -8 -18 -28 -39 -48 -47
-43 -4 3 -8 0 -8 -7 0 -6 -11 -22 -26 -35 -14 -13 -22 -24 -19 -24 3 0 0 -6
-7 -14 -7 -8 -16 -12 -20 -9 -5 2 -8 0 -8 -5 0 -17 -57 -82 -65 -74 -5 4 -5 2
-2 -4 4 -7 0 -17 -8 -24 -8 -7 -12 -17 -8 -23 4 -7 0 -8 -12 -3 -15 5 -16 4
-5 -9 10 -12 10 -15 -4 -15 -9 0 -16 -6 -16 -14 0 -8 -7 -17 -16 -20 -8 -3
-13 -10 -9 -16 5 -8 -11 -47 -26 -60 -3 -3 -10 -18 -17 -35 -6 -16 -17 -43
-23 -60 -15 -37 -14 -34 -23 -70 -4 -16 -11 -40 -16 -52 -7 -17 -6 -23 3 -23
7 0 8 -3 2 -8 -17 -12 -35 -72 -22 -72 7 0 6 -4 -3 -10 -13 -9 -13 -10 0 -10
13 -1 13 -2 0 -13 -10 -8 -15 -29 -14 -67 1 -30 -3 -61 -8 -67 -6 -7 -7 -13
-2 -13 5 0 9 -12 10 -27 5 -124 8 -154 15 -159 5 -3 5 -13 0 -22 -6 -12 -5
-23 4 -36 8 -10 11 -24 9 -31 -3 -7 -1 -16 5 -20 6 -3 11 -19 11 -36 0 -16 4
-29 8 -29 4 0 8 -10 9 -21 2 -24 -40 -93 -50 -82 -4 3 -7 0 -7 -7 0 -7 -10
-21 -22 -31 -11 -11 -17 -19 -12 -19 5 0 -4 -11 -20 -25 -16 -14 -25 -25 -21
-25 4 0 -3 -9 -16 -21 -13 -12 -23 -25 -21 -30 1 -5 -5 -12 -13 -15 -8 -4 -15
-12 -15 -20 0 -8 -7 -14 -16 -14 -14 0 -15 -2 -3 -17 10 -11 10 -14 2 -9 -8 4
-13 2 -13 -4 0 -6 -5 -8 -12 -4 -8 5 -7 0 2 -11 10 -13 11 -16 2 -11 -9 5 -15
1 -19 -13 -3 -12 -9 -21 -13 -21 -8 0 -23 -38 -21 -52 1 -5 -3 -8 -8 -8 -10 0
-22 -29 -18 -43 1 -5 -6 -13 -15 -18 -10 -6 -18 -17 -18 -24 0 -8 -4 -15 -10
-15 -5 0 -9 -3 -8 -7 4 -15 -13 -53 -23 -53 -6 0 -7 -5 -4 -10 3 -5 1 -10 -5
-10 -6 0 -9 -4 -5 -9 3 -5 1 -12 -5 -16 -6 -4 -8 -11 -5 -16 4 -5 1 -9 -5 -9
-6 0 -8 -4 -5 -10 3 -5 0 -10 -7 -10 -11 0 -10 -2 0 -9 11 -7 11 -9 -2 -14 -9
-4 -15 -10 -14 -14 1 -4 -6 -23 -15 -40 -10 -18 -14 -33 -11 -33 4 0 -1 -9
-11 -20 -10 -11 -13 -20 -7 -20 7 0 12 -5 12 -11 0 -5 -4 -7 -10 -4 -9 6 -14
-10 -13 -42 1 -7 -2 -13 -6 -13 -6 0 -11 -21 -14 -62 -1 -10 -5 -18 -10 -18
-5 0 -7 -7 -3 -15 3 -8 1 -15 -3 -15 -5 0 -8 -11 -7 -25 2 -13 0 -22 -4 -20
-4 3 -10 -6 -12 -20 -3 -14 -1 -25 6 -25 6 0 3 -5 -6 -11 -14 -8 -15 -15 -8
-35 7 -17 7 -23 0 -19 -10 6 -12 -5 -13 -52 0 -13 -4 -23 -9 -23 -5 0 -4 -8 1
-19 6 -10 7 -21 4 -25 -8 -8 -12 -37 -13 -88 -1 -22 -6 -38 -13 -38 -9 0 -9
-2 0 -8 7 -5 9 -13 4 -21 -5 -8 -5 -27 -1 -42 5 -16 5 -29 1 -29 -5 0 -8 -13
-7 -30 1 -16 4 -30 8 -30 4 0 3 -12 -3 -27 -7 -19 -6 -28 2 -33 8 -6 7 -9 -2
-13 -10 -4 -10 -6 -2 -6 9 -1 10 -8 2 -28 -7 -20 -7 -29 1 -31 8 -3 8 -8 -1
-18 -7 -8 -7 -14 -1 -14 15 0 21 -37 9 -49 -8 -8 -7 -11 4 -11 12 0 12 -2 -1
-11 -10 -7 -11 -12 -4 -15 7 -3 10 -14 7 -24 -3 -11 -1 -20 4 -20 5 0 10 -7
10 -15 0 -8 -4 -15 -9 -15 -5 0 -5 -8 0 -17 5 -10 12 -38 15 -63 12 -85 20
-125 28 -130 4 -3 9 -22 11 -43 1 -20 5 -37 8 -37 3 0 7 -12 8 -26 1 -14 5
-31 9 -37 4 -7 8 -16 8 -22 3 -31 29 -104 36 -100 4 3 6 -3 4 -14 -2 -11 3
-25 11 -31 7 -7 12 -16 9 -20 -3 -4 2 -13 10 -20 8 -7 15 -22 15 -34 0 -12 5
-27 12 -34 7 -7 8 -12 3 -12 -5 0 0 -7 11 -16 10 -8 12 -13 4 -9 -8 4 -5 -2 8
-13 15 -14 18 -22 10 -25 -10 -4 -10 -6 0 -6 6 -1 12 -8 12 -16 0 -8 4 -15 10
-15 5 0 9 -3 8 -7 -3 -12 45 -103 54 -103 4 0 8 -9 8 -21 0 -13 4 -18 12 -13
7 5 9 2 5 -9 -3 -9 1 -18 10 -21 8 -4 13 -13 9 -21 -3 -9 0 -15 9 -15 8 0 15
-7 15 -15 0 -8 5 -15 10 -15 6 0 10 -6 10 -14 0 -8 7 -17 16 -20 10 -4 14 -12
10 -23 -4 -10 -4 -14 0 -11 7 7 54 -39 54 -53 0 -5 7 -9 16 -9 8 0 12 -5 9
-11 -4 -5 6 -23 22 -38 54 -54 91 -100 85 -105 -3 -3 0 -6 7 -6 6 0 27 -16 45
-35 19 -19 39 -35 45 -35 6 0 10 -6 8 -12 -1 -7 4 -12 11 -11 6 2 12 -4 12
-12 0 -8 7 -15 16 -15 8 0 12 -4 9 -10 -3 -5 -1 -10 5 -10 7 0 25 -13 40 -30
15 -16 31 -30 34 -30 7 0 41 -28 66 -54 10 -10 23 -15 29 -11 7 4 10 1 9 -7
-2 -7 3 -12 10 -11 6 2 12 -2 12 -7 0 -6 7 -10 15 -10 8 0 15 -4 15 -8 0 -5
12 -15 28 -23 15 -8 33 -20 40 -27 8 -7 17 -10 22 -7 4 3 11 -2 14 -10 3 -8 9
-14 13 -14 4 1 16 -1 26 -6 15 -6 16 -10 5 -16 -8 -6 -2 -9 20 -9 20 0 31 -4
27 -10 -3 -6 0 -10 8 -10 25 0 88 -36 80 -46 -4 -5 -4 -6 0 -2 12 9 68 -12 62
-22 -3 -5 4 -7 15 -5 11 2 26 -3 34 -11 8 -8 23 -14 34 -14 11 0 25 -6 32 -14
6 -8 18 -12 26 -9 8 3 14 0 14 -6 0 -6 6 -8 14 -5 7 3 20 -1 27 -8 8 -7 30
-15 49 -16 19 -2 36 -8 38 -12 2 -5 10 -6 18 -3 8 3 14 1 14 -5 0 -5 11 -8 25
-7 14 2 25 0 25 -4 0 -4 6 -8 13 -9 59 -4 90 -11 97 -22 6 -10 9 -9 13 1 3 8
6 9 6 2 1 -6 10 -9 23 -5 13 3 19 1 15 -5 -9 -14 26 -23 47 -11 10 5 16 5 16
0 0 -5 18 -8 40 -7 22 2 40 -1 40 -6 0 -5 119 -8 265 -8 179 0 265 4 265 11 0
7 5 6 14 -1 10 -9 16 -9 21 -1 4 6 14 10 23 9 10 -1 20 0 25 1 4 1 10 3 15 4
4 1 13 5 21 10 11 7 12 6 6 -5 -8 -12 -6 -12 8 0 14 11 20 11 32 1 12 -10 16
-9 20 2 3 8 11 15 18 16 16 1 52 10 52 12 0 1 12 3 27 4 14 0 30 4 34 9 4 4
20 7 36 7 15 0 28 4 28 10 0 5 3 9 8 9 24 -4 52 2 47 11 -3 6 1 7 10 4 8 -4
22 -1 30 6 8 7 15 10 15 6 0 -4 15 1 33 11 17 9 41 17 52 17 11 0 25 7 32 16
6 8 15 12 18 8 4 -4 14 0 22 8 8 8 19 12 24 9 5 -4 9 -1 9 5 0 6 4 9 9 5 5 -3
12 -1 16 5 4 6 10 8 15 5 4 -3 11 2 14 11 3 8 10 13 15 10 5 -4 15 -1 23 6 7
7 19 14 27 16 7 1 20 9 28 17 8 8 19 15 24 15 6 0 7 6 3 13 -5 8 -2 8 9 -2 11
-9 17 -10 17 -2 0 6 6 11 14 11 8 0 17 7 20 16 3 8 10 12 16 9 5 -3 10 -1 10
5 0 6 5 8 10 5 6 -3 10 1 10 10 0 9 4 14 9 10 5 -3 16 2 24 10 9 8 20 15 26
15 6 0 11 5 11 11 0 5 4 8 9 5 5 -3 11 1 15 9 3 8 12 15 21 15 8 0 15 5 15 12
0 6 3 9 6 6 3 -3 15 4 28 16 34 32 66 56 66 50 0 -3 17 12 38 32 20 20 36 41
34 46 -1 5 2 7 7 4 5 -4 19 6 30 20 12 15 21 23 21 18 0 -4 11 7 25 26 14 19
25 30 25 26 0 -5 13 6 30 24 16 18 28 36 25 40 -3 4 5 10 16 13 14 4 18 10 13
19 -4 7 -3 10 1 5 10 -9 45 21 45 40 0 7 5 13 11 13 6 0 8 7 5 16 -3 8 -2 13
3 10 5 -3 14 1 21 9 7 8 10 15 7 15 -3 0 7 14 23 31 53 58 65 74 66 84 0 5 2
16 2 23 1 7 7 10 12 7 6 -3 10 1 10 9 0 9 4 16 10 16 5 0 9 6 7 13 -1 6 4 11
10 10 7 -2 12 0 11 5 -3 14 23 65 40 79 9 8 11 12 5 8 -18 -9 -16 -3 12 35 14
19 23 40 20 48 -2 7 0 10 5 7 5 -3 12 6 16 20 3 14 10 25 15 25 5 0 8 3 7 8
-1 4 4 23 11 42 8 19 13 38 12 43 0 4 4 7 10 7 5 0 8 4 4 9 -3 5 1 16 9 24 8
8 13 17 10 20 -4 3 -2 12 2 19 5 7 9 19 11 27 1 8 6 17 11 20 5 3 8 14 6 24
-1 9 1 17 6 17 4 0 11 7 14 16 3 9 2 12 -5 8 -13 -7 12 38 26 48 6 5 5 8 -4 8
-11 0 -11 3 -2 14 7 8 13 30 14 49 1 19 6 32 11 29 5 -3 7 5 4 16 -5 16 -1 22
10 23 10 0 12 3 5 5 -9 4 -9 13 -2 31 5 13 7 29 3 34 -3 5 0 9 6 9 6 0 8 5 5
10 -3 6 -1 10 6 10 8 0 8 4 -1 15 -10 12 -10 15 1 15 11 0 11 2 0 9 -12 7 -12
13 -3 24 9 10 12 106 11 358 0 189 -4 348 -7 354 -6 10 -8 24 -11 88 0 16 -5
26 -10 22 -6 -3 -8 4 -6 15 2 11 0 20 -5 20 -4 0 -6 9 -3 20 3 11 1 20 -3 20
-5 0 -10 17 -12 37 -1 20 -7 40 -12 43 -5 3 -11 21 -12 40 -2 19 -9 40 -17 46
-8 6 -12 18 -8 27 3 8 3 18 -1 21 -3 4 -7 14 -8 24 -2 9 -8 18 -13 20 -6 2
-11 11 -11 20 0 8 -7 24 -17 34 -13 14 -13 18 -2 18 10 1 9 3 -3 11 -10 5 -15
16 -12 24 4 8 1 15 -6 15 -6 0 -9 4 -5 9 3 5 -2 16 -10 24 -8 9 -15 21 -15 28
0 6 -9 27 -21 45 -11 19 -18 38 -14 44 3 5 0 10 -7 10 -12 0 -40 48 -44 78 -1
7 -12 21 -23 31 -11 10 -18 21 -14 25 3 3 -1 6 -10 6 -10 0 -15 7 -12 18 2 11
-7 26 -21 37 -13 10 -24 24 -24 31 0 7 -8 19 -17 26 -10 7 -24 25 -32 41 -8
15 -18 27 -23 27 -4 0 -8 7 -8 15 0 8 -4 15 -10 15 -5 0 -10 5 -10 10 0 6 -19
30 -42 55 -24 24 -56 58 -71 75 -16 16 -33 30 -39 30 -6 0 -9 3 -6 6 8 7 -36
54 -51 54 -6 0 -11 6 -11 14 0 7 -7 19 -15 26 -13 11 -14 10 -9 -6 4 -11 -4
-5 -17 12 -34 44 -80 84 -89 79 -5 -3 -10 -2 -12 3 -5 13 -85 72 -98 72 -6 0
-8 5 -5 10 3 6 -1 10 -9 10 -9 0 -16 5 -16 11 0 5 -5 7 -10 4 -6 -3 -13 1 -16
9 -3 9 -10 14 -14 11 -4 -3 -10 2 -14 10 -3 8 -15 15 -26 15 -14 0 -19 4 -14
12 5 8 0 9 -14 6 -12 -4 -20 -2 -17 2 3 5 -4 11 -15 15 -11 3 -20 11 -20 16 0
5 -3 8 -7 8 -20 -3 -34 2 -28 11 3 6 -3 10 -14 10 -12 0 -21 5 -21 11 0 5 -4
8 -9 4 -5 -3 -13 0 -16 6 -4 5 -14 8 -22 5 -8 -3 -11 -1 -8 4 3 6 -1 10 -9 10
-9 0 -16 5 -16 11 0 5 -4 8 -9 4 -5 -3 -12 -1 -16 5 -4 6 -10 8 -15 5 -5 -3
-11 -1 -15 5 -3 5 -15 10 -26 10 -10 0 -19 4 -19 8 0 4 -10 8 -22 9 -11 1 -24
6 -27 10 -3 4 -15 10 -26 11 -11 2 -22 7 -25 10 -5 7 -14 10 -50 15 -11 2 -23
6 -26 10 -4 4 -16 7 -26 7 -10 0 -18 4 -18 10 0 5 -7 7 -16 3 -9 -3 -20 0 -25
8 -8 12 -11 12 -19 -1 -7 -11 -10 -11 -10 -2 0 7 -4 10 -10 7 -5 -3 -10 -1
-10 4 0 6 -7 11 -16 11 -11 0 -14 6 -9 20 3 11 2 20 -3 20 -6 0 -8 9 -5 20 3
12 0 20 -8 20 -7 0 -9 3 -6 7 4 3 0 17 -9 31 -9 13 -12 22 -6 18 6 -3 1 13
-10 36 -11 24 -25 46 -30 49 -5 3 -9 8 -7 10 5 8 -13 49 -21 49 -5 0 -7 6 -4
14 3 8 -3 20 -13 27 -10 8 -19 21 -21 29 -2 8 -10 21 -19 28 -9 6 -14 12 -10
12 9 0 3 7 -81 105 -7 8 -12 17 -12 20 0 9 -40 45 -51 45 -5 0 -8 4 -4 9 7 12
-29 33 -39 24 -3 -3 -6 -1 -6 5 0 15 -42 58 -53 54 -4 -1 -10 5 -13 13 -4 8
-15 15 -26 15 -10 0 -16 5 -13 10 3 6 1 10 -5 10 -6 0 -32 14 -57 32 -25 17
-43 25 -39 17 4 -8 1 -6 -7 4 -9 11 -21 15 -32 10 -12 -4 -16 -3 -12 4 4 6 -1
17 -10 24 -11 10 -14 10 -9 2 9 -15 -14 -8 -61 20 -18 10 -37 16 -42 13 -5 -3
-11 -2 -13 3 -1 5 -12 11 -23 13 -11 1 -22 6 -25 9 -3 3 -18 9 -33 13 -22 5
-27 4 -21 -6 4 -7 -1 -5 -12 4 -11 9 -34 16 -51 16 -18 -1 -38 4 -45 10 -8 6
-19 7 -27 2 -16 -10 -41 11 -41 34 0 8 -7 22 -16 30 -8 9 -12 16 -8 16 3 0 1
7 -6 15 -6 8 -9 19 -5 25 3 5 2 10 -3 10 -5 0 -9 6 -10 13 0 6 -3 23 -7 37
-12 47 -12 55 -3 61 5 3 2 13 -7 23 -9 9 -13 16 -8 16 4 0 1 5 -7 10 -8 5 -10
10 -4 10 8 0 11 20 10 59 -1 33 1 59 4 59 20 -2 21 4 4 16 -17 13 -17 15 -2
21 11 4 15 14 12 32 -3 17 -1 22 7 17 9 -5 10 -1 6 15 -3 12 0 27 6 34 7 6 13
21 15 31 2 10 10 25 18 33 13 13 15 21 13 39 0 3 9 14 20 23 11 10 18 21 14
25 -3 3 -1 6 5 6 7 0 12 5 12 11 0 7 11 22 25 35 14 13 25 28 25 34 0 5 3 9 8
8 15 -4 52 23 46 34 -4 6 -3 8 3 5 6 -4 21 2 34 12 30 22 137 63 149 56 5 -3
11 -1 15 4 3 5 14 8 25 6 11 -2 20 0 20 4 0 9 51 8 66 -2 6 -3 16 -2 24 3 8 5
19 2 29 -7 10 -10 16 -12 19 -4 2 7 9 8 21 1 10 -5 21 -6 25 -3 3 3 6 1 6 -5
0 -7 9 -12 20 -12 11 0 28 -8 39 -19 10 -10 30 -21 45 -25 14 -3 26 -11 26
-17 0 -13 58 -69 71 -69 6 0 8 -4 4 -9 -3 -5 -1 -12 5 -16 6 -4 8 -11 5 -16
-4 -5 -1 -9 4 -9 6 0 11 -9 11 -19 0 -11 4 -22 8 -25 5 -3 9 -28 11 -55 2 -41
-1 -51 -14 -51 -14 0 -14 -3 -1 -28 9 -17 11 -34 6 -42 -5 -8 -6 -18 -4 -22 3
-4 0 -8 -6 -8 -6 0 -8 -4 -5 -10 3 -5 1 -10 -4 -10 -6 0 -10 -6 -9 -12 2 -7
-1 -12 -7 -11 -5 0 -21 -14 -35 -33 -14 -18 -31 -32 -37 -29 -7 2 -13 -3 -13
-12 0 -13 -3 -13 -15 -3 -12 10 -15 10 -15 0 0 -8 -3 -10 -7 -7 -3 4 -12 2
-19 -4 -7 -6 -14 -6 -18 0 -3 5 -15 7 -26 4 -12 -3 -20 0 -20 6 0 7 -4 10 -9
7 -15 -9 -71 47 -80 82 -6 18 -6 32 -1 32 5 0 16 12 24 28 8 15 15 22 16 15 0
-8 6 -8 25 0 25 12 33 27 14 27 -5 0 -7 5 -3 12 5 8 0 9 -14 6 -13 -4 -22 -1
-22 5 0 8 -4 7 -9 -2 -5 -7 -13 -11 -19 -7 -5 3 -12 -4 -15 -15 -3 -12 -10
-18 -16 -14 -6 3 -11 -1 -11 -9 0 -9 -3 -16 -7 -16 -9 0 -9 -67 0 -76 3 -3 4
-11 1 -18 -3 -7 9 -26 25 -43 16 -17 27 -34 24 -37 -4 -3 4 -6 16 -6 12 0 24
-6 27 -13 2 -7 17 -12 32 -11 15 1 32 -3 39 -8 7 -5 14 -5 18 2 3 5 18 10 32
10 32 0 107 42 128 73 8 12 18 21 20 20 3 -2 4 -2 3 0 -2 1 7 15 19 31 13 16
20 32 17 37 -3 5 0 9 7 9 6 0 9 8 6 20 -3 11 -2 20 2 20 4 0 7 8 7 18 1 9 5
26 9 36 6 15 5 17 -5 11 -10 -6 -11 -4 -4 6 12 20 14 39 3 39 -5 0 -8 3 -8 8
4 23 -2 52 -10 48 -5 -4 -7 4 -4 15 4 15 0 27 -12 35 -14 10 -15 14 -4 14 10
0 11 3 2 8 -6 4 -13 13 -15 21 -2 7 -24 36 -50 64 -27 27 -48 53 -48 57 0 7
-37 21 -49 19 -2 0 -7 4 -10 9 -3 6 -13 12 -21 14 -8 2 -21 10 -28 18 -12 13
-13 13 -6 0 6 -12 4 -13 -7 -2 -7 6 -21 12 -32 12 -12 0 -16 4 -11 13 6 9 4 9
-8 -1 -12 -9 -17 -10 -20 -1 -4 12 -168 20 -168 7z"/>
</g>
</svg>
